<?xml version="1.0" encoding="utf-8"?>
<!-- Generator: Adobe Illustrator 22.1.0, SVG Export Plug-In . SVG Version: 6.00 Build 0)  -->
<svg version="1.1" id="Réteg_1" xmlns="http://www.w3.org/2000/svg" xmlns:xlink="http://www.w3.org/1999/xlink" x="0px" y="0px"
	 viewBox="0 0 426 426" style="enable-background:new 0 0 426 426;" xml:space="preserve">
<style type="text/css">
	.st0{fill:none;stroke:#3A485B;stroke-width:2;stroke-miterlimit:10;}
	.st1{fill:none;stroke:#3A485B;stroke-width:2;stroke-miterlimit:10;stroke-dasharray:5;}
	.st2{fill:#3A485B;}
	.st3{fill:#567A8B;}
	.st4{fill:none;stroke:#567A8B;stroke-miterlimit:10;}
	.st5{fill:#BACEC6;}
	.st6{fill:#73C475;}
	.st7{fill:#FFC524;}
	.st8{fill:#F2F2F2;}
	.st9{fill:none;stroke:#FFC524;stroke-miterlimit:10;}
</style>
<g id="BACKGROUND">
</g>
<g id="OBJECTS">
	<path class="st0" d="M95.2,210.6c0-67,52.2-121.3,116.6-121.3s116.6,54.3,116.6,121.3"/>
	<path class="st1" d="M328.5,218c0,67-52.2,121.3-116.6,121.3S95.2,285,95.2,218"/>
	<line class="st0" x1="81.3" y1="214.5" x2="114.1" y2="214.5"/>
	<line class="st0" x1="312.1" y1="214.5" x2="345" y2="214.5"/>
	<line class="st0" x1="320.3" y1="210.6" x2="336.7" y2="210.6"/>
	<line class="st0" x1="87" y1="210.6" x2="103.4" y2="210.6"/>

		<ellipse transform="matrix(8.248051e-02 -0.9966 0.9966 8.248051e-02 15.9893 202.8673)" class="st2" cx="118.2" cy="92.8" rx="36.9" ry="36.9"/>
	<circle class="st2" cx="64.6" cy="67.7" r="11.8"/>
	<circle class="st2" cx="389.8" cy="171.1" r="20.9"/>
	<path class="st2" d="M368.9,139.4c0,3.6-3,6.6-6.6,6.6c-3.6,0-6.6-2.9-6.6-6.6s3-6.6,6.6-6.6S368.9,135.8,368.9,139.4z"/>
	<path class="st2" d="M360.2,159.8c0,2.1-1.7,3.7-3.7,3.7s-3.7-1.7-3.7-3.7s1.7-3.7,3.7-3.7C358.6,156.1,360.2,157.8,360.2,159.8z"
		/>
	<g>
		<g>
			<path class="st3" d="M163.8,398c-0.3-0.2-0.4-0.5-0.4-0.8v-26.1c0-0.3,0.1-0.6,0.3-0.8s0.5-0.4,0.8-0.4h15.2
				c0.4,0,0.7,0.1,0.9,0.3c0.2,0.2,0.3,0.4,0.3,0.7c0,0.3-0.1,0.5-0.3,0.7c-0.2,0.2-0.5,0.3-0.9,0.3H166v10.8h13.2
				c0.8,0,1.2,0.3,1.2,1c0,0.3-0.1,0.5-0.3,0.7c-0.2,0.2-0.5,0.3-0.9,0.3H166v11.7h14.4c0.4,0,0.7,0.1,0.9,0.3s0.3,0.4,0.3,0.7
				c0,0.3-0.1,0.6-0.3,0.7c-0.2,0.2-0.5,0.3-0.9,0.3h-15.7C164.4,398.4,164.1,398.2,163.8,398z"/>
			<path class="st3" d="M192.2,398.1c-0.2-0.2-0.3-0.4-0.3-0.8v-17.6c0-0.3,0.1-0.6,0.3-0.8c0.2-0.2,0.5-0.3,0.8-0.3
				c0.3,0,0.6,0.1,0.8,0.3c0.2,0.2,0.4,0.5,0.4,0.9l0,2.3c0.3-1.2,0.9-2.3,1.9-3.1c1-0.8,2.3-1.2,3.9-1.2c0,0,0.2,0.1,0.3,0.3
				c0.2,0.1,0.3,0.3,0.4,0.4c0.1,0.1,0.2,0.3,0.2,0.4c0,0.3-0.1,0.5-0.3,0.7s-0.5,0.3-0.9,0.3c-0.9,0-1.6,0.1-2.3,0.4
				c-0.7,0.3-1.2,0.6-1.6,1.1c-0.4,0.4-0.7,0.9-1,1.4c-0.3,0.5-0.4,1-0.5,1.4c-0.1,0.4-0.1,0.8-0.1,1.1v12c0,0.3-0.1,0.6-0.4,0.8
				c-0.2,0.2-0.5,0.3-0.8,0.3C192.7,398.4,192.4,398.3,192.2,398.1z"/>
			<path class="st3" d="M210.1,398.1c-0.2-0.2-0.3-0.4-0.3-0.8v-17.6c0-0.3,0.1-0.6,0.3-0.8c0.2-0.2,0.5-0.3,0.8-0.3
				c0.3,0,0.6,0.1,0.8,0.3c0.2,0.2,0.4,0.5,0.4,0.9l0,2.3c0.3-1.2,0.9-2.3,1.9-3.1c1-0.8,2.3-1.2,3.9-1.2c0,0,0.2,0.1,0.3,0.3
				c0.2,0.1,0.3,0.3,0.4,0.4c0.1,0.1,0.2,0.3,0.2,0.4c0,0.3-0.1,0.5-0.3,0.7s-0.5,0.3-0.9,0.3c-0.9,0-1.6,0.1-2.3,0.4
				c-0.7,0.3-1.2,0.6-1.6,1.1c-0.4,0.4-0.7,0.9-1,1.4c-0.3,0.5-0.4,1-0.5,1.4c-0.1,0.4-0.1,0.8-0.1,1.1v12c0,0.3-0.1,0.6-0.4,0.8
				c-0.2,0.2-0.5,0.3-0.8,0.3C210.6,398.4,210.3,398.3,210.1,398.1z"/>
			<path class="st3" d="M231.9,398.2c-1.1-0.4-2.2-1.1-3.1-1.9c-0.9-0.8-1.6-1.9-2.1-3.3c-0.5-1.3-0.8-2.9-0.8-4.5
				c0-1.7,0.2-3.2,0.8-4.5c0.5-1.3,1.2-2.4,2.1-3.3s1.9-1.5,3.1-2s2.4-0.7,3.7-0.7c1.3,0,2.6,0.2,3.7,0.7c1.2,0.5,2.2,1.1,3.1,2
				c0.9,0.9,1.6,2,2.1,3.3s0.8,2.8,0.8,4.5c0,1.7-0.3,3.2-0.8,4.6c-0.5,1.3-1.2,2.4-2.1,3.3s-1.9,1.5-3.1,1.9
				c-1.1,0.4-2.4,0.7-3.7,0.7C234.3,398.9,233,398.6,231.9,398.2z M240.9,382.1c-1.3-1.6-3.1-2.4-5.4-2.4s-4,0.8-5.3,2.4
				c-1.3,1.6-2,3.7-2,6.4c0,2.6,0.6,4.7,1.9,6.4s3.1,2.4,5.3,2.4c2.3,0,4.1-0.8,5.4-2.4c1.3-1.6,1.9-3.7,1.9-6.4
				C242.9,385.8,242.2,383.7,240.9,382.1z"/>
			<path class="st3" d="M254.4,398.1c-0.2-0.2-0.3-0.4-0.3-0.8v-17.6c0-0.3,0.1-0.6,0.3-0.8c0.2-0.2,0.5-0.3,0.8-0.3
				c0.3,0,0.6,0.1,0.8,0.3c0.2,0.2,0.4,0.5,0.4,0.9l0,2.3c0.3-1.2,1-2.3,1.9-3.1c1-0.8,2.3-1.2,3.9-1.2c0,0,0.2,0.1,0.3,0.3
				c0.2,0.1,0.3,0.3,0.4,0.4s0.2,0.3,0.2,0.4c0,0.3-0.1,0.5-0.3,0.7s-0.5,0.3-0.9,0.3c-0.9,0-1.6,0.1-2.3,0.4
				c-0.7,0.3-1.2,0.6-1.6,1.1s-0.7,0.9-1,1.4c-0.3,0.5-0.4,1-0.5,1.4c-0.1,0.4-0.1,0.8-0.1,1.1v12c0,0.3-0.1,0.6-0.4,0.8
				c-0.2,0.2-0.5,0.3-0.8,0.3S254.6,398.3,254.4,398.1z"/>
		</g>
		<g>
			<line class="st4" x1="279.4" y1="385.1" x2="321.1" y2="385.1"/>
			<line class="st4" x1="104.9" y1="385.1" x2="146.6" y2="385.1"/>
		</g>
	</g>
	<g>
		<path class="st3" d="M157,351.1c-1.2-1-1.8-2.3-1.8-4v-11.2h-30.9c-1.8,0-3.2-0.6-4.3-1.9s-1.6-2.8-1.6-4.4c0-0.3,0-0.6,0.1-0.9
			c0-0.3,0.1-0.5,0.2-0.8c0.1-0.3,0.2-0.5,0.3-0.8s0.2-0.5,0.4-0.7l29.2-46.4c2.5-4,5.9-6,10.1-6c2.4,0,4.5,0.7,6.1,2.1
			c1.6,1.4,2.4,3.5,2.4,6.3V327h7.5c1.4,0,2.5,0.4,3.2,1.3s1.1,1.9,1.1,3.1s-0.4,2.2-1.1,3.1c-0.8,0.9-1.9,1.3-3.2,1.3H167v11.2
			c0,1.7-0.6,3.1-1.8,4s-2.6,1.5-4.1,1.5C159.6,352.6,158.2,352.1,157,351.1z M155.2,326.9v-40.5l-24.9,40.5L155.2,326.9
			L155.2,326.9z"/>
		<path class="st3" d="M203.3,352.1c-2.9-1-5.4-2.5-7.4-4.4s-3.8-4.1-5.2-6.6s-2.6-5.3-3.5-8.4c-0.8-3.1-1.4-6.3-1.8-9.5
			c-0.4-3.2-0.6-6.7-0.6-10.3c0-4.5,0.3-8.7,0.8-12.5s1.5-7.5,2.8-11c1.3-3.5,3.1-6.5,5.2-9c2.1-2.5,4.8-4.4,8.1-5.9
			c3.3-1.5,7.1-2.2,11.3-2.2s8,0.7,11.3,2.2c3.3,1.5,6,3.4,8.1,5.9s3.8,5.5,5.2,9c1.3,3.5,2.3,7.2,2.8,11c0.5,3.8,0.8,8,0.8,12.5
			c0,4.4-0.3,8.5-0.8,12.3c-0.5,3.8-1.5,7.5-2.8,11.1s-3,6.6-5.1,9.1c-2.1,2.5-4.8,4.5-8.1,6.1c-3.3,1.5-7.1,2.3-11.4,2.3
			C209.4,353.7,206.1,353.1,203.3,352.1z M218.9,342.4c1.7-0.9,3.2-2.1,4.3-3.7c1.1-1.6,2-3.4,2.8-5.3s1.3-4.1,1.6-6.6
			c0.4-2.5,0.6-4.8,0.7-6.9s0.2-4.5,0.2-7.1c0-2.2,0-4.3-0.1-6.2c-0.1-1.9-0.3-3.9-0.5-6.1c-0.3-2.2-0.6-4.1-1.1-5.8s-1.1-3.4-1.9-5
			c-0.8-1.6-1.7-3-2.8-4.1s-2.4-2-3.9-2.6s-3.3-1-5.2-1c-1.9,0-3.6,0.3-5.2,1c-1.5,0.7-2.8,1.5-3.9,2.6s-2,2.4-2.8,4
			c-0.8,1.6-1.4,3.3-1.9,5c-0.5,1.7-0.8,3.6-1.1,5.8s-0.5,4.2-0.6,6.1s-0.1,4-0.1,6.2c0,2.2,0.1,4.2,0.1,6.1c0.1,1.9,0.3,3.9,0.6,6
			c0.3,2.2,0.6,4.1,1.1,5.8s1.1,3.4,1.9,5.1c0.8,1.7,1.7,3.1,2.8,4.2s2.4,2,3.9,2.7c1.6,0.7,3.3,1,5.2,1
			C215.2,343.7,217.2,343.3,218.9,342.4z"/>
		<path class="st3" d="M288.3,351.1c-1.2-1-1.8-2.3-1.8-4v-11.2h-30.9c-1.8,0-3.2-0.6-4.3-1.9s-1.6-2.8-1.6-4.4c0-0.3,0-0.6,0.1-0.9
			c0-0.3,0.1-0.5,0.2-0.8s0.2-0.5,0.3-0.8s0.2-0.5,0.4-0.7l29.2-46.4c2.5-4,5.9-6,10.1-6c2.5,0,4.5,0.7,6.1,2.1
			c1.6,1.4,2.4,3.5,2.4,6.3V327h7.5c1.4,0,2.5,0.4,3.2,1.3s1.1,1.9,1.1,3.1s-0.4,2.2-1.1,3.1s-1.9,1.3-3.2,1.3h-7.5v11.2
			c0,1.7-0.6,3.1-1.8,4c-1.2,1-2.5,1.5-4.1,1.5C290.9,352.6,289.5,352.1,288.3,351.1z M286.5,326.9v-40.5l-24.9,40.5L286.5,326.9
			L286.5,326.9z"/>
	</g>
	<polygon class="st5" points="149.1,138.8 182.9,152.5 182.9,250.3 149.1,235.5 	"/>
	<polygon class="st6" points="182.9,152.5 214.5,138.8 214.5,238 182.9,250.3 	"/>
	<polygon class="st5" points="214.5,138.8 248.3,155.1 248.3,252.9 214.5,238.1 	"/>
	<polygon class="st6" points="248.3,155.1 279.9,141.5 279.9,240.6 248.3,253 	"/>
	<path class="st0" d="M142.3,184.3c0,0,35-16.7,58.9,8.1s59.8,35.7,84.7,2.7"/>
	<path class="st0" d="M238.8,143.3c-9.4,10.6-11.8,27.5,0.9,36.7c3.9,2.8,9,3.8,13.4,1.6c4.5-2.2,7.3-6.3,12.5-7.4
		c4.2-0.9,8.6-0.3,12.9,0.1c8.4,0.9,17.9,1.8,22.1-7.2"/>
	<path class="st0" d="M135.4,215.7c0,0,21.8-14.2,37.7,0s15.3,51,48.6,37.2"/>
	<path class="st7" d="M241.2,114.9h-0.4c1.1-3.1,1.7-6.4,1.7-9.9c0-15.9-12.5-28.8-27.9-28.8c-15.4,0-27.9,12.9-27.9,28.8
		c0,3.5,0.6,6.8,1.7,9.9h0l0.1,0.2c0.9,2.4,2.1,4.7,3.6,6.8l21.6,41.1l23.7-41.3c1-1.4,1.8-2.8,2.5-4.3L241.2,114.9z"/>
	<circle class="st2" cx="214.1" cy="105.5" r="20.1"/>
	<g>
		<path class="st8" d="M220.1,112.8l-5.6-7.1l-5.6,7.2c-0.2,0.2-0.4,0.4-0.7,0.4s-0.5-0.1-0.7-0.3s-0.3-0.4-0.3-0.6
			c0-0.1,0.1-0.3,0.2-0.5l6.1-7.6l-5.4-6.8c-0.1-0.2-0.2-0.4-0.2-0.6c0-0.3,0.1-0.6,0.2-0.8c0.2-0.2,0.4-0.3,0.7-0.3
			c0.3,0,0.6,0.1,0.9,0.5l5.1,6.5l5.1-6.6c0.2-0.3,0.4-0.4,0.7-0.4c0.2,0,0.5,0.1,0.6,0.3c0.2,0.2,0.3,0.4,0.3,0.6
			c0,0.1-0.1,0.3-0.2,0.5l-5.5,7l5.8,7.4c0.1,0.2,0.2,0.4,0.2,0.6c0,0.3-0.1,0.5-0.2,0.7s-0.4,0.3-0.7,0.3
			C220.6,113.3,220.3,113.2,220.1,112.8z"/>
	</g>
	<g>
		<path class="st2" d="M308.7,89l-5.2-5.1l-3.8,6.4c-0.1,0.2-0.3,0.3-0.5,0.4s-0.4,0-0.6-0.2c-0.2-0.1-0.3-0.3-0.3-0.5
			c0-0.1,0-0.2,0.1-0.4l4-6.7l-5-4.9c-0.1-0.1-0.2-0.3-0.2-0.5c0-0.2,0-0.4,0.1-0.6s0.3-0.3,0.5-0.3c0.3,0,0.5,0.1,0.7,0.3l4.8,4.7
			l3.4-5.8c0.1-0.2,0.3-0.4,0.5-0.4c0.2,0,0.4,0,0.5,0.1c0.2,0.1,0.3,0.3,0.3,0.4c0,0.1,0,0.3-0.1,0.4l-3.6,6.2l5.4,5.3
			c0.1,0.1,0.2,0.3,0.2,0.4c0,0.2,0,0.4-0.1,0.6c-0.1,0.2-0.3,0.3-0.5,0.3C309.1,89.4,308.9,89.3,308.7,89z"/>
	</g>
	<path class="st9" d="M338.8,100c0.6,2.1-0.5,4.2-2.6,4.9s-4.2-0.5-4.9-2.6s0.5-4.2,2.6-4.9C336,96.8,338.1,97.9,338.8,100z"/>
	<path class="st9" d="M308.1,56.3c0.5,1.8-0.5,3.6-2.2,4.2c-1.8,0.5-3.6-0.4-4.2-2.2s0.5-3.6,2.2-4.2
		C305.8,53.6,307.6,54.6,308.1,56.3z"/>
	<g>
		<path class="st2" d="M81.8,329.9l-3.5-6.4l-5.4,5c-0.2,0.2-0.4,0.2-0.6,0.2c-0.2,0-0.4-0.1-0.5-0.3s-0.2-0.4-0.2-0.5
			c0-0.1,0.1-0.2,0.2-0.4l5.8-5.2l-3.4-6.1c-0.1-0.2-0.1-0.3-0.1-0.5c0-0.2,0.1-0.4,0.3-0.6c0.2-0.1,0.3-0.2,0.6-0.2
			c0.3,0,0.5,0.2,0.6,0.5l3.2,5.9l4.9-4.6c0.2-0.2,0.4-0.2,0.6-0.2c0.2,0,0.3,0.1,0.5,0.3s0.2,0.3,0.2,0.5c0,0.1-0.1,0.2-0.2,0.4
			l-5.3,4.9l3.6,6.7c0.1,0.2,0.1,0.3,0.1,0.5c0,0.2-0.1,0.4-0.3,0.6c-0.2,0.1-0.3,0.2-0.6,0.2C82.1,330.4,81.9,330.2,81.8,329.9z"/>
	</g>
	<path class="st9" d="M90.9,298.4c0,1.8-1.5,3.3-3.3,3.3c-1.8,0-3.3-1.5-3.3-3.3c0-1.8,1.5-3.3,3.3-3.3
		C89.4,295.1,90.9,296.6,90.9,298.4z"/>
	<g>
		<path class="st2" d="M342.3,278.6l-6.8-2.6l-0.9,7.4c0,0.2-0.1,0.4-0.3,0.5s-0.4,0.1-0.6,0.1c-0.2,0-0.4-0.1-0.5-0.3
			c-0.1-0.1-0.1-0.2-0.1-0.4l1.1-7.8l-6.5-2.5c-0.2-0.1-0.3-0.2-0.4-0.3c-0.1-0.2-0.2-0.4-0.1-0.6s0.1-0.4,0.3-0.5
			c0.2-0.1,0.5-0.1,0.8,0l6.2,2.4l0.8-6.7c0-0.3,0.1-0.5,0.3-0.6c0.2-0.1,0.4-0.1,0.6-0.1s0.4,0.1,0.5,0.3c0.1,0.1,0.1,0.2,0.1,0.5
			l-0.9,7.1l7.1,2.7c0.2,0.1,0.3,0.2,0.4,0.3c0.1,0.2,0.2,0.4,0.1,0.6s-0.1,0.4-0.3,0.5C342.8,278.8,342.5,278.8,342.3,278.6z"/>
	</g>
	<circle class="st9" cx="345" cy="249.8" r="3.9"/>
	<g>
		<path class="st2" d="M69.1,159.6l-3.8-6.2l-5.2,5.3c-0.2,0.2-0.4,0.2-0.6,0.2c-0.2,0-0.4-0.1-0.6-0.3s-0.2-0.4-0.2-0.5
			c0-0.1,0.1-0.2,0.2-0.4l5.6-5.5l-3.7-6c-0.1-0.2-0.2-0.3-0.1-0.5c0-0.2,0.1-0.4,0.3-0.6c0.2-0.1,0.3-0.2,0.6-0.2
			c0.3,0,0.5,0.2,0.7,0.4l3.5,5.7l4.7-4.8c0.2-0.2,0.4-0.3,0.6-0.2c0.2,0,0.4,0.1,0.5,0.3c0.2,0.2,0.2,0.3,0.2,0.5
			c0,0.1-0.1,0.2-0.2,0.4l-5,5.1l3.9,6.5c0.1,0.2,0.1,0.3,0.1,0.5c0,0.2-0.1,0.4-0.3,0.6c-0.2,0.2-0.3,0.2-0.6,0.2
			C69.4,160.1,69.2,159.9,69.1,159.6z"/>
	</g>
	<path class="st9" d="M89.1,171.1c0,2.2-1.8,3.9-3.9,3.9s-3.9-1.8-3.9-3.9s1.8-3.9,3.9-3.9C87.3,167.2,89.1,169,89.1,171.1z"/>
</g>
<g id="DESIGNED_BY_FREEPIK">
</g>
</svg>
